<?xml version="1.0" standalone="no"?>
<!DOCTYPE svg PUBLIC "-//W3C//DTD SVG 20010904//EN"
 "http://www.w3.org/TR/2001/REC-SVG-20010904/DTD/svg10.dtd">
<svg version="1.0" xmlns="http://www.w3.org/2000/svg"
 width="64.000000pt" height="64.000000pt" viewBox="0 0 64.000000 64.000000"
 preserveAspectRatio="xMidYMid meet">

<g transform="translate(0.000000,64.000000) scale(0.100000,-0.100000)"
fill="#000000" stroke="none">
<path d="M180 515 l0 -114 138 -3 137 -3 6 -30 c5 -20 5 -15 3 14 -2 24 -4 90
-4 147 0 93 -2 104 -17 103 -11 0 -13 -3 -5 -6 8 -3 12 -34 12 -104 l0 -99
-131 0 -130 0 3 105 c2 58 0 105 -4 105 -5 0 -8 -52 -8 -115z"/>
<path d="M210 520 l0 -90 110 0 110 0 0 90 0 90 -110 0 -110 0 0 -90z"/>
<path d="M172 360 c0 -19 2 -27 5 -17 2 9 2 25 0 35 -3 9 -5 1 -5 -18z"/>
<path d="M205 368 c-11 -50 -22 -138 -17 -143 7 -7 257 -7 264 0 5 5 -6 93
-17 143 -5 21 -10 22 -115 22 -105 0 -110 -1 -115 -22z m76 -105 c13 -17 13
-17 -6 -3 -11 8 -22 16 -24 17 -2 2 0 3 6 3 6 0 17 -8 24 -17z m93 2 c-10 -8
-23 -15 -28 -15 -6 0 -1 7 10 15 10 8 23 15 28 15 6 0 1 -7 -10 -15z"/>
<path d="M162 290 c0 -19 2 -27 5 -17 2 9 2 25 0 35 -3 9 -5 1 -5 -18z"/>
<path d="M476 268 l5 -58 -160 0 c-158 0 -160 0 -164 23 -2 12 -5 -33 -6 -100
-1 -117 0 -123 19 -123 18 0 20 7 20 55 l0 55 130 0 130 0 0 -55 c0 -48 2 -55
20 -55 19 0 20 6 19 118 0 64 -4 135 -9 157 -8 35 -8 33 -4 -17z m4 -103 c0
-35 0 -35 -45 -35 -41 0 -45 2 -45 25 0 24 -2 25 -70 25 -68 0 -70 -1 -70 -25
0 -23 -4 -25 -45 -25 -45 0 -45 0 -45 35 l0 35 160 0 160 0 0 -35z m-100 -15
c0 -18 -7 -20 -60 -20 -53 0 -60 2 -60 20 0 18 7 20 60 20 53 0 60 -2 60 -20z
m-200 -80 c0 -27 -4 -50 -10 -50 -5 0 -10 23 -10 50 0 28 5 50 10 50 6 0 10
-22 10 -50z m300 0 c0 -27 -4 -50 -10 -50 -5 0 -10 23 -10 50 0 28 5 50 10 50
6 0 10 -22 10 -50z"/>
<path d="M430 165 c0 -10 7 -15 18 -13 21 4 19 22 -2 26 -10 2 -16 -3 -16 -13z"/>
</g>
</svg>
